<svg xmlns="http://www.w3.org/2000/svg" width="35.806" height="46" viewBox="0 0 35.806 46"><defs><style>.a{fill:none;stroke:#fcfcfc;}</style></defs><path class="a" d="M31.086,0h-20.9V5.418a4.774,4.774,0,0,1-4.784,4.8H0V41.338A3.7,3.7,0,0,0,3.708,45H31.1a3.709,3.709,0,0,0,3.709-3.662V3.662A3.719,3.719,0,0,0,31.086,0ZM7.646,36.849H4.269a.918.918,0,0,1,0-1.837H7.646a.918.918,0,0,1,0,1.837Zm0-9.184H4.269a.918.918,0,0,1,0-1.837H7.646a.918.918,0,0,1,0,1.837Zm0-9.184H4.269a.918.918,0,0,1,0-1.837H7.646a.918.918,0,0,1,0,1.837ZM30.536,36.849H12.269a.918.918,0,0,1,0-1.837H30.525a.922.922,0,0,1,.654,1.566A.908.908,0,0,1,30.536,36.849Zm0-9.184H12.269a.918.918,0,0,1,0-1.837H30.525a.922.922,0,0,1,.654,1.566A.908.908,0,0,1,30.536,27.666Zm0-9.184H12.269a.918.918,0,0,1,0-1.837H30.525a.922.922,0,0,1,.654,1.566A.908.908,0,0,1,30.536,18.482Zm0,0" transform="translate(0.5 0.5)"/></svg>